<?xml version="1.0" encoding="UTF-8" standalone="no"?>
<svg
   xmlns:dc="http://purl.org/dc/elements/1.1/"
   xmlns:cc="http://creativecommons.org/ns#"
   xmlns:rdf="http://www.w3.org/1999/02/22-rdf-syntax-ns#"
   xmlns:svg="http://www.w3.org/2000/svg"
   xmlns="http://www.w3.org/2000/svg"
   id="svg5860"
   version="1.1"
   viewBox="0 0 105.83333 105.83334"
   height="400"
   width="400">
  <defs
     id="defs5854" />
  <metadata
     id="metadata5857">
    <rdf:RDF>
      <cc:Work
         rdf:about="">
        <dc:format>image/svg+xml</dc:format>
        <dc:type
           rdf:resource="http://purl.org/dc/dcmitype/StillImage" />
        <dc:title></dc:title>
      </cc:Work>
    </rdf:RDF>
  </metadata>
  <g
     transform="translate(0,-191.16665)"
     id="layer1">
    <g
       transform="translate(-128.51191,121.70833)"
       id="g6477">
      <path
         id="path31218-5-7"
         d="m 170.82205,91.904569 c -1.58932,2.20921 -3.17863,4.41842 -4.76796,6.6286 2.73963,0 5.47926,0 8.21982,0 -1.15125,-2.21018 -2.30156,-4.41939 -3.45186,-6.6286 z"
         style="fill:#ff00cc;fill-opacity:1;stroke:#ff00cc;stroke-width:0.94209844;stroke-linecap:round;stroke-linejoin:round;stroke-opacity:1" />
      <path
         id="path31224-6-2"
         d="m 176.33143,99.806889 c 1.69862,8.274421 3.39816,16.547951 5.09773,24.822401 1.69858,-8.27445 3.39813,-16.54798 5.0977,-24.822401 -3.39912,0 -6.79727,0 -10.19543,0 z"
         style="fill:#ff00cc;fill-opacity:1;stroke:#ff00cc;stroke-width:0.94209844;stroke-linecap:round;stroke-linejoin:round;stroke-opacity:1" />
      <path
         id="path31230-4-9"
         d="m 181.42916,91.372269 c -1.62797,2.38728 -3.25593,4.7736 -4.88386,7.16088 3.25589,0 6.51181,0 9.7677,0 -1.62794,-2.38728 -3.25589,-4.7736 -4.88384,-7.16088 z"
         style="fill:#ff00cc;fill-opacity:1;stroke:#ff00cc;stroke-width:0.94209844;stroke-linecap:round;stroke-linejoin:round;stroke-opacity:1" />
      <path
         id="path31232-2-7"
         d="m 187.45387,97.944329 c 1.31235,-2.52011 2.62469,-5.04022 3.93607,-7.56034 -3.09194,-0.18373 -6.18392,-0.3674 -9.2759,-0.55018 1.77964,2.70289 3.56019,5.4067 5.33983,8.11052 z"
         style="fill:#ff00cc;fill-opacity:1;stroke:#ff00cc;stroke-width:0.94209844;stroke-linecap:round;stroke-linejoin:round;stroke-opacity:1" />
      <path
         id="path31238-4-6"
         d="m 163.77516,92.270079 c 0.40512,1.85219 0.81114,3.70435 1.21719,5.55652 1.68259,-2.33924 3.36424,-4.67752 5.04683,-7.01676 -2.08768,0.48705 -4.17632,0.97318 -6.26402,1.46024 z"
         style="fill:#ff00cc;fill-opacity:1;stroke:#ff00cc;stroke-width:0.94209844;stroke-linecap:round;stroke-linejoin:round;stroke-opacity:1" />
      <path
         style="fill:#6600ff;stroke:#000000;stroke-width:0.94209844;stroke-linecap:round;stroke-linejoin:round;stroke-opacity:0"
         d="m 181.42909,70.047169 c -28.24035,0 -51.39812,22.38284 -52.35908,50.606211 -0.95999,28.22339 20.62263,52.12944 48.79702,54.04942 v -42.28218 c 1.18704,1.22473 2.37406,2.44844 3.56206,3.67317 1.18705,-1.22473 2.37397,-2.44844 3.56102,-3.67317 v 42.28218 c 28.1744,-1.91999 49.75703,-25.82603 48.79703,-54.04942 -0.96093,-28.223361 -24.11866,-50.606211 -52.35805,-50.606211 z m 0,2.4567 c 24.12902,0 44.40404,18.13345 47.08809,42.112671 2.68308,23.98019 -13.08216,46.14589 -36.61483,51.48006 2.34864,-17.24415 4.69638,-34.48808 7.04505,-51.73224 -5.83914,6.02284 -11.6792,12.04575 -17.51831,18.06763 -5.84007,-6.02188 -11.67927,-12.04479 -17.51935,-18.06763 2.34865,17.24416 4.69735,34.48809 7.04505,51.73224 -23.53173,-5.33417 -39.29791,-27.49987 -36.61482,-51.48006 2.68406,-23.979221 22.95915,-42.112671 47.08912,-42.112671 z"
         id="path31240-2-3" />
      <path
         id="path31244-0-7"
         d="m 182.6388,125.18134 c 7.89949,-8.45816 15.79901,-16.91629 23.6985,-25.374451 -2.52484,0 -5.05059,0 -7.57542,0 -5.37468,8.458161 -10.74934,16.916291 -16.12308,25.374451 z"
         style="fill:#6600ff;fill-opacity:1;stroke:#ffffff;stroke-width:0.94209844;stroke-linecap:round;stroke-linejoin:round;stroke-opacity:0" />
      <path
         id="path31256-8-7"
         d="m 165.95048,99.806889 c 4.94225,8.355451 9.88542,16.710941 14.82769,25.065451 -2.0293,-8.35451 -4.05857,-16.71 -6.08784,-25.065451 -2.91297,0 -5.82594,0 -8.73985,0 z"
         style="fill:#6600ff;fill-opacity:1;stroke:#ffffff;stroke-width:0.94209844;stroke-linecap:round;stroke-linejoin:round;stroke-opacity:0" />
      <path
         id="path31266-7-3"
         d="m 156.52006,99.806889 c 7.89949,8.458161 15.79899,16.916291 23.69944,25.374451 -5.37468,-8.45816 -10.74937,-16.91629 -16.12401,-25.374451 -2.52485,0 -5.04965,0 -7.57543,0 z"
         style="fill:#6600ff;fill-opacity:1;stroke:#ffffff;stroke-width:0.94209844;stroke-linecap:round;stroke-linejoin:round;stroke-opacity:0" />
      <path
         id="path31272-9-5"
         d="m 196.80327,98.533149 c -1.58933,-2.21017 -3.17866,-4.41938 -4.76797,-6.62859 -1.1503,2.20921 -2.30062,4.41842 -3.45092,6.62859 2.73963,0 5.47926,0 8.21889,0 z"
         style="fill:#ff00cc;fill-opacity:1;stroke:#ff00cc;stroke-width:0.94209844;stroke-linecap:round;stroke-linejoin:round;stroke-opacity:1" />
      <path
         id="path31276-0-0"
         d="m 182.08013,124.87234 c 4.94227,-8.35451 9.8845,-16.71 14.82675,-25.065451 -2.91297,0 -5.82688,0 -8.73985,0 -2.02928,8.355451 -4.05854,16.710941 -6.0869,25.065451 z"
         style="fill:#6600ff;fill-opacity:1;stroke:#ffffff;stroke-width:0.94209844;stroke-linecap:round;stroke-linejoin:round;stroke-opacity:0" />
      <path
         id="path31278-1-2"
         d="m 206.3373,98.533149 c -2.02553,-1.89361 -4.05197,-3.78628 -6.07748,-5.67896 -0.41548,1.89269 -0.83,3.78535 -1.24451,5.67896 2.44098,0 4.881,0 7.32199,0 z"
         style="fill:#ff00cc;fill-opacity:1;stroke:#ff00cc;stroke-width:0.94209844;stroke-linecap:round;stroke-linejoin:round;stroke-opacity:1" />
      <path
         id="path31280-3-3"
         d="m 171.46739,90.383989 c 1.31235,2.52012 2.62376,5.04023 3.9361,7.56034 1.78056,-2.70382 3.5602,-5.40763 5.3398,-8.11052 -3.09194,0.18267 -6.18392,0.36648 -9.2759,0.55018 z"
         style="fill:#ff00cc;fill-opacity:1;stroke:#ff00cc;stroke-width:0.94209844;stroke-linecap:round;stroke-linejoin:round;stroke-opacity:1" />
      <path
         id="path31282-1-4"
         d="m 197.86501,97.826599 c 0.40602,-1.85218 0.81207,-3.70434 1.21813,-5.55653 -2.08864,-0.48705 -4.17631,-0.97319 -6.26495,-1.46024 1.68258,2.33924 3.36517,4.67752 5.04682,7.01677 z"
         style="fill:#ff00cc;fill-opacity:1;stroke:#ff00cc;stroke-width:0.94209844;stroke-linecap:round;stroke-linejoin:round;stroke-opacity:1" />
      <path
         id="path31284-7-8"
         d="m 162.59848,92.854189 c -2.02644,1.89269 -4.05195,3.78535 -6.07842,5.67896 2.44099,0 4.88194,0 7.32199,0 -0.41452,-1.89361 -0.82905,-3.78628 -1.24357,-5.67896 z"
         style="fill:#ff00cc;fill-opacity:1;stroke:#ff00cc;stroke-width:0.94209844;stroke-linecap:round;stroke-linejoin:round;stroke-opacity:1" />
    </g>
  </g>
</svg>
